<svg xmlns="http://www.w3.org/2000/svg" fill="#fff" aria-label="Liibra" viewBox="0 0 792 642"><title>Liibra</title><path d="M180.6 25.6c-1.4 1.4-1.6 21.1-1.6 201.5V427l-2.4 11.5c-2.6 12.1-7.3 23.9-13.2 32.7-5.1 7.6-17.4 19.8-24.1 23.7-3.2 1.9-7.4 4.4-9.3 5.6-1.9 1.3-8.5 3.9-14.7 5.9-13.3 4.2-26.8 5.8-48.8 5.6-8.2-.1-15.8-.1-16.7-.1-3.6.2-4.4 4.7-4.2 22.9.1 15 .3 17.5 1.9 19.2 1.7 1.9 3.1 2 33.7 2 29.8 0 32.7-.2 45.6-2.5 32.1-5.9 54.7-17.4 73-36.9 6.3-6.9 16.2-19.8 16.2-21.2 0-.3 1-1.9 2.1-3.6 5.5-7.7 14-33.8 15.9-48.8.7-5.6 1-76.5 1-212.2 0-183.8-.2-203.8-1.6-205.2-1.3-1.4-5.1-1.6-26.4-1.6s-25.1.2-26.4 1.6m99.8-.2c-1.9 1.4-1.9 4.7-1.9 211.3v209.8l2.4.3c1.3.2 5.3-1.2 9.2-3.2 3.8-2 9.7-4.7 13.2-6 3.4-1.3 8-3.1 10.2-3.9 2.2-.9 6.6-2.4 9.9-3.3 3.2-1 7.2-2.8 8.7-4.2l2.9-2.4V225.6c0-190.8-.1-198.4-1.8-199.9-1.6-1.5-5-1.7-26.3-1.7-19.6 0-24.9.3-26.5 1.4m179.5 201.4c-3.9 1.2-3.9-.1-3.9 100.5 0 63 .4 97.5 1 98.7s3.8 2.7 8.3 4c3.9 1.2 9.5 3.1 12.2 4.2 2.8 1.1 7.5 2.8 10.5 3.8 5.5 1.7 11.4 4.8 15.9 8.2 3.1 2.3 6.8 2.3 8.1-.1.6-1.3.9-37.5.9-108.5-.1-98.8-.3-106.8-1.8-108.8-1.7-2-2.7-2.1-25.7-2.2-13.2-.1-24.7 0-25.5.2m100.4 0c-5.1.7-5-3.4-4.7 107.9.2 88.1.5 105.3 1.8 113.5 4.4 27.4 15.1 49.3 33.9 69.4 13.8 14.8 27.8 23.5 49.7 30.8 19.7 6.5 28 7.5 68.4 7.7 30.8.1 33 0 34.3-1.7 2-2.7 1.9-37.2-.2-40-1.4-2-2.6-2.2-26.2-2.7-26.5-.6-35.3-1.8-46.4-6-7.9-3.1-18.4-8.3-22.2-11.1-5.8-4.2-16.1-14.2-19.6-19.1-7.1-9.8-13.9-26.7-16.1-40.3-.6-3.2-1-49.5-1-105.3-.1-80-.3-100-1.4-101.4-1.1-1.6-3.5-1.8-24.7-1.9-12.9 0-24.4 0-25.6.2"/><path d="M370.1 460.6c-19.4 2.1-39 7.7-58.1 16.7-8.4 3.9-9.8 4.7-21.5 12.3-15.6 10.1-34.1 27.9-47.5 45.9-6.5 8.7-9.2 11.5-18.4 19.3-15.1 12.9-16.8 14-33.1 22.1-12.7 6.3-20.5 9-36.8 12.8l-15.2 3.6-45.2.4c-35.4.4-45.6.8-47 1.8-1.6 1.2-1.8 3.2-1.8 21.2 0 10.9.4 21 .8 22.5l.7 2.8h55.4c53.4 0 55.5-.1 59.9-2 2.6-1.2 9.8-2.7 16.9-3.6 14.8-1.8 29.5-6.2 44.5-13.4 9.3-4.5 14.5-7.6 26.7-16 10.7-7.3 26.5-23.3 35.9-36.4 14.2-19.6 23.5-29.2 36.7-37.7 23.4-15.2 36.3-19.9 60.5-22 17-1.5 34.4 0 47 4 9.5 3.1 21 8 25.4 11 1.4 1 5.3 3.5 8.6 5.6 13.6 8.8 25.8 21.2 39 39.5 9.9 13.7 31.8 34.3 45.5 42.7 4.3 2.6 19.7 10.3 26.5 13.3 9.1 3.9 22.9 7.8 33.4 9.4 5.7.9 12.4 2.5 14.9 3.6 4.3 1.9 6.8 2 62.2 2h57.7l.7-3.7c.3-2.1.6-12.2.6-22.4 0-16.7-.2-18.8-1.8-20.2-1.7-1.5-6-1.7-40.8-1.7-21.4 0-42.8-.4-47.6-.9-11.3-1.2-30.4-5.5-39.8-8.9-9.8-3.6-30.9-14.3-36.3-18.4-14.5-11.3-21.2-18.1-37.4-38-11.3-13.8-27.7-29-40.3-37.3-10.3-6.8-28.3-16.5-30.4-16.5-.3 0-2.9-1.1-5.8-2.4-22.7-10.3-60.6-14.7-94.7-11"/><path d="M383.4 562.5c-6.9 2.2-15.5 7.6-20.1 12.6-1.1 1.3-3.7 5.4-5.6 9-6.3 12-5.9 24.2 1.1 35.9 4.7 8 11.7 14.3 18.4 16.5 2.9.9 6.5 2.5 7.9 3.6 3.9 2.7 15.1 2.7 18.6-.1 1.4-1.1 4.8-2.7 7.5-3.5 13.3-3.9 24.3-18.4 25.6-33.8.9-11.3-7.2-27-17.7-34.4-5.4-3.8-19.3-8.4-25-8.2-2 .1-6.8 1.1-10.7 2.4"/></svg>